<svg width="24" height="24" viewBox="0 0 24 24" fill="none" xmlns="http://www.w3.org/2000/svg">
<path d="M14.4844 5.2264C14.0684 5.22933 13.6553 5.24984 13.2188 5.36702C12.7822 5.48421 12.3457 5.67171 11.8828 5.9764C11.3086 5.63949 10.752 5.36117 10.2188 5.29671C9.55664 5.21468 8.94141 5.25863 8.22656 5.27327C7.37988 5.29085 6.82617 5.72445 5.92969 6.07015C5.0332 6.41585 3.87891 6.74984 2.25 6.74984H1.5V13.9686L1.92188 14.1795L3.30469 14.8592L8.22656 20.3436L8.25 20.367C8.8125 20.9237 9.57129 21.0614 10.2422 21.0233C10.9131 20.9852 11.543 20.7889 12.0469 20.4842C13.1543 19.8162 16.1719 17.7186 16.1719 17.7186L16.2422 17.6717L16.2891 17.6248C16.6465 17.2703 16.8252 16.8368 16.9453 16.3826L19.8281 14.9295L21.9844 14.203L22.5 14.0389V6.74984H21.75C20.124 6.74984 18.9668 6.39827 18.0703 6.04671C17.1738 5.69515 16.6289 5.26742 15.7734 5.24984C15.3164 5.24105 14.9004 5.22347 14.4844 5.2264ZM14.5078 6.7264C14.8447 6.72347 15.2344 6.74105 15.7266 6.74984C15.8057 6.75277 16.5264 7.06038 17.5312 7.45296C18.3809 7.78695 19.5615 8.08285 21 8.17952V12.9608L19.2656 13.5467H19.2188L19.1719 13.5701L16.8984 14.7186C16.7725 14.3758 16.5996 14.0594 16.3359 13.7811L16.2891 13.7108L13.1016 9.79671L12.6328 9.21077L12.0469 9.67952L10.0312 11.3201C9.35449 11.7889 8.80664 11.6541 8.25 11.3905C8.08887 11.3143 8.09766 11.2909 7.96875 11.203L11.3906 8.36702L11.4375 8.32015C12.4541 7.31234 13.0781 6.9637 13.6172 6.82015C13.8867 6.74691 14.1709 6.72933 14.5078 6.7264ZM9.28125 6.74984C9.56836 6.74398 9.80859 6.74691 10.0312 6.77327C10.2275 6.79671 10.4502 6.9637 10.6406 7.03109C10.5645 7.1014 10.5088 7.14242 10.4297 7.21859C10.4121 7.23617 10.4004 7.24788 10.3828 7.26546L6.28125 10.6639L5.64844 11.1795L6.21094 11.7655C6.21094 11.7655 6.75293 12.3514 7.59375 12.7498C8.43457 13.1483 9.73242 13.3739 10.8984 12.5623L10.9453 12.5155L12.3984 11.3201L15.1641 14.7186L15.1875 14.7655L15.2109 14.7889C15.7061 15.2782 15.6943 16.0487 15.2109 16.5467C15.2051 16.5526 15.2168 16.5643 15.2109 16.5701C15.2051 16.5731 15.1055 16.6317 15.0938 16.6405L14.1094 15.3045L12.8906 16.1951L13.8516 17.4842C13.4619 17.7479 13.2861 17.8856 12.8672 18.1639L11.8594 16.8045L10.6406 17.6952L11.6016 18.9842C11.5166 19.0369 11.3408 19.1541 11.2734 19.1952C11.0361 19.3387 10.5791 19.4998 10.1719 19.5233C9.78809 19.5438 9.49512 19.4559 9.35156 19.3358L9.32812 19.3123L4.3125 13.7576L4.21875 13.6405L3 13.0311V8.17952C4.43262 8.08577 5.62207 7.8016 6.46875 7.4764C7.4707 7.09261 8.18555 6.7762 8.27344 6.77327C8.65723 6.76449 8.99414 6.7557 9.28125 6.74984Z" fill="black"/>
</svg>
